<svg xmlns="http://www.w3.org/2000/svg" width="48" height="48" viewBox="0 0 48 48" fill="none" role="img" aria-label="Cardputer ADV mark">
  
  <rect x="3" y="3" width="42" height="42" rx="7" fill="#15181D" stroke="#3A424D" stroke-width="2"></rect>
  
  <rect x="9" y="10" width="30" height="17" fill="#0B0D10" stroke="#2C333C" stroke-width="1"></rect>
  
  <rect x="12" y="14" width="2" height="2" fill="#EDF0F3"></rect>
  <rect x="14" y="16" width="2" height="2" fill="#EDF0F3"></rect>
  <rect x="16" y="18" width="2" height="2" fill="#EDF0F3"></rect>
  <rect x="14" y="20" width="2" height="2" fill="#EDF0F3"></rect>
  <rect x="12" y="22" width="2" height="2" fill="#EDF0F3"></rect>
  
  <rect x="21" y="14" width="3" height="10" fill="#FF7A1A"></rect>
  
  <g fill="#2C333C">
    <rect x="9" y="31" width="4" height="3"></rect>
    <rect x="15" y="31" width="4" height="3"></rect>
    <rect x="21" y="31" width="4" height="3"></rect>
    <rect x="27" y="31" width="4" height="3"></rect>
    <rect x="33" y="31" width="6" height="3"></rect>
    <rect x="9" y="36" width="4" height="3"></rect>
    <rect x="15" y="36" width="4" height="3"></rect>
    <rect x="21" y="36" width="4" height="3"></rect>
    <rect x="27" y="36" width="4" height="3"></rect>
    <rect x="33" y="36" width="6" height="3"></rect>
    <rect x="9" y="41" width="10" height="3"></rect>
    <rect x="21" y="41" width="10" height="3"></rect>
    <rect x="33" y="41" width="6" height="3"></rect>
  </g>
</svg>